# xmcd
#
# Track frame offsets:
#	150
#	10351
#	22593
#	38943
#	51103
#	61875
#	71506
#	85244
#	97166
#	107513
#	118730
#	132326
#
# Disc length: 1945 seconds
# Revision: 2
# Processed by: cddbd v1.5.2PL0 Copyright (c) Steve Scherf et al.
# Submitted via: dBpowerAMP V12.0
#
DISCID=9a07970c
DTITLE=Dale Watson - Call Me Lucky
DYEAR=2019
DGENRE=Country
TTITLE0=Call Me Lucky
TTITLE1=The Dumb Song
TTITLE2=Johnny and June
TTITLE3=Tupelo Mississippi and a '57 Fairlane
TTITLE4=Haul Off and Do It
TTITLE5=Restless
TTITLE6=David Buxkemper
TTITLE7=Inside View
TTITLE8=You Weren't Supposed to Feel this Good
TTITLE9=Mama's Smile
TTITLE10=Who Needs this Man
TTITLE11=Run Away
EXTD=
EXTT0=
EXTT1=
EXTT2=
EXTT3=
EXTT4=
EXTT5=
EXTT6=
EXTT7=
EXTT8=
EXTT9=
EXTT10=
EXTT11=
PLAYORDER=
